<?xml version="1.0" encoding="utf-8"?>
<!-- Generator: Adobe Illustrator 26.1.0, SVG Export Plug-In . SVG Version: 6.00 Build 0)  -->
<svg version="1.1" id="레이어_1" xmlns="http://www.w3.org/2000/svg" xmlns:xlink="http://www.w3.org/1999/xlink" x="0px"
	 y="0px" viewBox="0 0 137 28" style="enable-background:new 0 0 137 28;" xml:space="preserve">
<style type="text/css">
	.st0{fill:#8166F8;}
	.st1{fill:#7E41F3;}
	.st2{fill:#7C29FF;}
	.st3{fill:#7900E9;}
	.st4{opacity:0.85;fill:#FFFFFF;}
	.st5{fill:#FFFFFF;}
	.st6{fill:#333333;}
</style>
<g>
	<g>
		<polygon class="st0" points="10.9,21.8 17.2,10.7 4.5,10.7 		"/>
		<path class="st1" d="M21.6,20.4L21.6,20.4c0,0.1,0,0.1-0.1,0.1c0,0-0.1,0.1-0.1,0.1l-0.9,0.1l-1.1,0.1l-8.6,0.9l6.4-11l3.6,7.9h0
			l0.5,1L21.6,20.4z"/>
		<path class="st1" d="M10.9,21.8l-8.6-0.9l-1.1-0.1l-0.9-0.1c0,0-0.1-0.1-0.1-0.1c0,0-0.1-0.1-0.1-0.1l0.4-0.8l0.5-1l3.6-7.9
			L10.9,21.8z"/>
		<path class="st2" d="M4.5,10.7l-3.6,7.9l-0.5,1l-0.4,0.8c0,0,0,0,0,0c0-0.1-0.1-0.2-0.1-0.3v0C0,20.1,0,20,0,20c0,0,0,0,0,0v-0.2
			L0,8.9v0c0,0,0,0,0-0.1v0c0-0.2,0.1-0.4,0.2-0.6v0l1.1,0.6l1.2,0.7L4.5,10.7z"/>
		<path class="st3" d="M21.7,8.9v11c0,0.1,0,0.2,0,0.3v0c0,0.1,0,0.2-0.1,0.3l-0.4-0.8l-0.5-1h0l-3.6-7.9l2-1.1l1.2-0.7l1.1-0.6
			C21.7,8.4,21.7,8.7,21.7,8.9z"/>
		<path class="st2" d="M21.5,20.7c-0.1,0.1-0.1,0.1-0.2,0.2c0,0-0.1,0.1-0.1,0.1c0,0,0,0,0,0c0,0,0,0,0,0L21,21.1l0,0c0,0,0,0,0,0
			l-9.3,5.4c0,0,0,0,0,0l-0.2,0.1h0c-0.2,0.1-0.4,0.1-0.6,0.1l0-1.3l0-1.4l0-2.3l8.6-0.9l1.1-0.1L21.5,20.7z"/>
		<path class="st3" d="M10.9,26.7L10.9,26.7c-0.2,0-0.4,0-0.6-0.1l-0.2-0.1l-9.3-5.4c0,0,0,0,0,0L0.6,21c0,0,0,0,0,0c0,0,0,0,0,0
			c-0.1,0-0.1-0.1-0.1-0.1l0,0c-0.1-0.1-0.1-0.1-0.2-0.2l0.9,0.1l1.1,0.1l8.6,0.9l0,2.3l0,1.4L10.9,26.7z"/>
		<path class="st3" d="M10.7,2.1l-0.5,0.7L9.5,3.7v0l-5.1,7l-2-1.1L1.3,8.9L0.2,8.2c0.1-0.2,0.3-0.3,0.4-0.5c0,0,0,0,0,0
			c0,0,0,0,0,0c0,0,0,0,0,0c0,0,0,0,0,0l9.5-5.5c0,0,0,0,0,0c0,0,0,0,0.1,0c0,0,0,0,0,0c0,0,0,0,0,0c0.1,0,0.1,0,0.2-0.1
			C10.5,2.1,10.6,2.1,10.7,2.1C10.7,2.1,10.7,2.1,10.7,2.1z"/>
		<path class="st1" d="M17.2,10.7H4.5l5.1-7v0l0.6-0.9l0.5-0.7h0c0.1,0,0.1,0,0.2,0c0.1,0,0.1,0,0.2,0l0.5,0.7l0.6,0.9L17.2,10.7z"
			/>
		<path class="st2" d="M21.5,8.2l-1.1,0.6l-1.2,0.7l-2,1.1l-5.1-7l-0.6-0.9L11,2.1c0,0,0,0,0,0c0.1,0,0.1,0,0.2,0.1
			c0.1,0,0.1,0.1,0.2,0.1c0,0,0,0,0,0c0,0,0,0,0,0c0,0,0,0,0,0l0,0c0,0,0,0,0,0L21,7.7c0,0,0,0,0,0l0.1,0C21.3,7.9,21.4,8,21.5,8.2
			C21.5,8.2,21.5,8.2,21.5,8.2z"/>
	</g>
	<g>
		<path class="st4" d="M16,21L16,21c-1.1,0-2.1-0.9-2.1-2.1v-9c0-1.1,0.9-2.1,2.1-2.1l0,0c1.1,0,2.1,0.9,2.1,2.1v9
			C18.1,20.1,17.2,21,16,21z"/>
		<path class="st5" d="M9.5,15.2L9.5,15.2c0.7,0.9,2.1,1,3,0.3l4.9-4c0.9-0.7,1-2.1,0.3-3l0,0c-0.7-0.9-2.1-1-3-0.3l-4.9,4
			C8.9,12.9,8.7,14.3,9.5,15.2z"/>
		<circle class="st5" cx="6.2" cy="18.5" r="2.6"/>
		<path class="st4" d="M12.7,15.2L12.7,15.2c-0.7,0.9-2.1,1-3,0.3l-4.9-4c-0.9-0.7-1-2.1-0.3-3v0c0.7-0.9,2.1-1,3-0.3l4.9,4
			C13.3,13,13.5,14.3,12.7,15.2z"/>
	</g>
</g>
<g>
	<path class="st6" d="M37.8,20.4v-8l-3.1,6h-1.3l-3.1-6v8h-2.4V8.3h2.5l3.6,6.9l3.6-6.9h2.5v12.1H37.8z"/>
	<path class="st6" d="M46.1,8.3h2.1l4.6,12.1h-2.4l-1.1-3h-4.2l-1.1,3h-2.4L46.1,8.3z M48.9,15.8L47.2,11l-1.7,4.8H48.9z"/>
	<path class="st6" d="M61.2,11.5c-0.1-0.1-0.2-0.2-0.4-0.3c-0.2-0.1-0.5-0.3-0.8-0.4c-0.3-0.1-0.6-0.2-1-0.3
		c-0.4-0.1-0.7-0.1-1.1-0.1c-0.6,0-1.1,0.1-1.5,0.4c-0.3,0.2-0.5,0.6-0.5,1c0,0.3,0.1,0.5,0.2,0.6c0.1,0.2,0.3,0.3,0.5,0.4
		c0.2,0.1,0.5,0.2,0.9,0.3c0.3,0.1,0.7,0.2,1.2,0.3c0.6,0.2,1.1,0.3,1.6,0.5c0.5,0.2,0.9,0.4,1.2,0.7c0.3,0.3,0.6,0.6,0.8,1
		c0.2,0.4,0.3,0.9,0.3,1.4c0,0.6-0.1,1.2-0.4,1.7c-0.2,0.5-0.6,0.8-1,1.1c-0.4,0.3-0.9,0.5-1.4,0.6c-0.5,0.1-1.1,0.2-1.7,0.2
		c-0.9,0-1.8-0.1-2.7-0.4c-0.9-0.3-1.7-0.7-2.4-1.2l1-2c0.1,0.1,0.3,0.2,0.6,0.4c0.3,0.2,0.6,0.3,0.9,0.5c0.4,0.2,0.8,0.3,1.2,0.4
		c0.4,0.1,0.9,0.2,1.4,0.2c1.3,0,1.9-0.4,1.9-1.2c0-0.3-0.1-0.5-0.2-0.7c-0.1-0.2-0.4-0.3-0.6-0.5c-0.3-0.1-0.6-0.3-1-0.4
		c-0.4-0.1-0.8-0.2-1.3-0.4c-0.6-0.2-1.1-0.3-1.5-0.5c-0.4-0.2-0.8-0.4-1.1-0.7c-0.3-0.3-0.5-0.6-0.6-0.9c-0.1-0.3-0.2-0.7-0.2-1.2
		c0-0.6,0.1-1.2,0.3-1.6c0.2-0.5,0.5-0.9,0.9-1.2c0.4-0.3,0.9-0.6,1.4-0.7c0.5-0.2,1.1-0.2,1.7-0.2c0.9,0,1.6,0.1,2.4,0.4
		c0.7,0.3,1.3,0.6,1.9,0.9L61.2,11.5z"/>
	<path class="st6" d="M76.4,20c-0.5,0.3-1,0.6-1.6,0.7c-0.6,0.2-1.4,0.3-2.3,0.3C72,21,71.5,21,71,20.8c-0.5-0.1-1-0.4-1.4-0.7
		c-0.4-0.3-0.7-0.8-1-1.4c-0.2-0.6-0.4-1.3-0.4-2.1v-1c0-0.8,0.1-1.4,0.3-2c0.2-0.6,0.5-1,0.9-1.4c0.4-0.4,0.8-0.6,1.4-0.8
		c0.5-0.2,1.1-0.3,1.7-0.3c0.6,0,1.1,0.1,1.7,0.3c0.5,0.2,0.9,0.4,1.3,0.8c0.4,0.3,0.6,0.8,0.9,1.3c0.2,0.5,0.3,1.1,0.3,1.8V17h-6.3
		c0,0.8,0.2,1.3,0.6,1.7c0.4,0.4,1,0.6,1.7,0.6c0.6,0,1.1-0.1,1.5-0.2c0.4-0.1,0.9-0.3,1.4-0.6L76.4,20z M74.6,15.3v-0.4
		c0-0.3,0-0.5-0.1-0.7c-0.1-0.2-0.2-0.4-0.4-0.6c-0.2-0.2-0.4-0.3-0.6-0.4c-0.3-0.1-0.6-0.2-1-0.2c-0.7,0-1.3,0.2-1.6,0.6
		c-0.4,0.4-0.5,0.8-0.5,1.4v0.4H74.6z"/>
	<path class="st6" d="M83.3,16l3,4.9h-2.6l-1.9-3.4L80,20.9h-2.4l3-4.9l-2.9-4.5h2.6l1.8,3.1l1.8-3.1h2.4L83.3,16z"/>
	<path class="st6" d="M92.5,21c-0.6,0-1.1-0.1-1.5-0.3c-0.4-0.2-0.7-0.5-1-0.8v4.6h-2.2V11.5H90v1c0.2-0.2,0.3-0.4,0.6-0.6
		c0.2-0.2,0.4-0.3,0.7-0.4c0.2-0.1,0.5-0.2,0.7-0.2c0.2,0,0.5-0.1,0.7-0.1c0.6,0,1.2,0.1,1.6,0.3c0.5,0.2,0.8,0.5,1.2,0.8
		c0.3,0.3,0.5,0.8,0.7,1.3c0.2,0.5,0.2,1,0.2,1.7v1.7c0,0.6-0.1,1.2-0.3,1.7c-0.2,0.5-0.4,0.9-0.8,1.3c-0.3,0.4-0.7,0.6-1.2,0.8
		C93.6,20.9,93.1,21,92.5,21z M94.2,15.6c0-0.8-0.2-1.4-0.5-1.9c-0.3-0.4-0.8-0.7-1.5-0.7c-0.7,0-1.3,0.2-1.6,0.6
		c-0.4,0.4-0.6,0.9-0.6,1.6v2c0,0.2,0.1,0.4,0.2,0.7c0.1,0.2,0.3,0.4,0.5,0.6c0.2,0.2,0.4,0.3,0.7,0.4c0.3,0.1,0.6,0.2,0.9,0.2
		c0.6,0,1.1-0.2,1.4-0.7c0.3-0.4,0.5-1.1,0.5-1.8V15.6z"/>
	<path class="st6" d="M98.4,8h2.2v12.9h-2.2V8z"/>
	<path class="st6" d="M107,21c-0.7,0-1.3-0.1-1.8-0.3c-0.5-0.2-1-0.5-1.4-0.8c-0.4-0.4-0.7-0.8-0.9-1.4c-0.2-0.5-0.3-1.2-0.3-1.8
		v-1.1c0-0.7,0.1-1.3,0.3-1.8c0.2-0.5,0.5-1,0.9-1.4c0.4-0.4,0.8-0.6,1.4-0.8c0.5-0.2,1.1-0.3,1.8-0.3c0.7,0,1.3,0.1,1.8,0.3
		c0.5,0.2,1,0.5,1.4,0.8c0.4,0.4,0.7,0.8,0.9,1.4c0.2,0.5,0.3,1.2,0.3,1.8v1.1c0,0.7-0.1,1.3-0.3,1.8c-0.2,0.5-0.5,1-0.9,1.4
		c-0.4,0.4-0.8,0.6-1.4,0.8C108.3,20.9,107.7,21,107,21z M107,19.1c0.3,0,0.6,0,0.9-0.1c0.3-0.1,0.5-0.2,0.7-0.4
		c0.2-0.2,0.4-0.5,0.5-0.8c0.1-0.3,0.2-0.7,0.2-1.1v-1c0-0.9-0.2-1.5-0.6-1.9c-0.4-0.4-0.9-0.6-1.6-0.6c-0.7,0-1.2,0.2-1.6,0.6
		c-0.4,0.4-0.6,1-0.6,1.9v1c0,0.4,0.1,0.8,0.2,1.1c0.1,0.3,0.3,0.6,0.5,0.8c0.2,0.2,0.4,0.3,0.7,0.4C106.4,19.1,106.7,19.1,107,19.1
		z"/>
	<path class="st6" d="M119,13.4c-0.2-0.1-0.3-0.1-0.5-0.2c-0.2,0-0.4-0.1-0.7-0.1c-0.3,0-0.6,0.1-0.8,0.2c-0.3,0.1-0.5,0.2-0.7,0.4
		s-0.3,0.4-0.4,0.7c-0.1,0.3-0.2,0.5-0.2,0.8v5.6h-2.2v-9.4h2.1v1.4h0c0.3-0.5,0.6-0.9,1-1.1c0.4-0.3,1-0.4,1.6-0.4
		c0.2,0,0.5,0,0.7,0.1c0.2,0,0.4,0.1,0.6,0.1L119,13.4z"/>
	<path class="st6" d="M128.7,20c-0.5,0.3-1,0.6-1.6,0.7c-0.6,0.2-1.4,0.3-2.3,0.3c-0.5,0-1.1-0.1-1.6-0.2c-0.5-0.1-1-0.4-1.4-0.7
		c-0.4-0.3-0.7-0.8-1-1.4c-0.2-0.6-0.4-1.3-0.4-2.1v-1c0-0.8,0.1-1.4,0.3-2c0.2-0.6,0.5-1,0.9-1.4c0.4-0.4,0.8-0.6,1.4-0.8
		c0.5-0.2,1.1-0.3,1.7-0.3c0.6,0,1.1,0.1,1.7,0.3c0.5,0.2,0.9,0.4,1.3,0.8c0.4,0.3,0.6,0.8,0.9,1.3c0.2,0.5,0.3,1.1,0.3,1.8V17h-6.3
		c0,0.8,0.2,1.3,0.6,1.7c0.4,0.4,1,0.6,1.7,0.6c0.6,0,1.1-0.1,1.5-0.2c0.4-0.1,0.9-0.3,1.4-0.6L128.7,20z M126.8,15.3v-0.4
		c0-0.3,0-0.5-0.1-0.7c-0.1-0.2-0.2-0.4-0.4-0.6c-0.2-0.2-0.4-0.3-0.6-0.4c-0.3-0.1-0.6-0.2-1-0.2c-0.7,0-1.3,0.2-1.6,0.6
		c-0.4,0.4-0.5,0.8-0.5,1.4v0.4H126.8z"/>
	<path class="st6" d="M136.4,13.4c-0.2-0.1-0.3-0.1-0.5-0.2c-0.2,0-0.4-0.1-0.7-0.1c-0.3,0-0.6,0.1-0.8,0.2
		c-0.3,0.1-0.5,0.2-0.7,0.4s-0.3,0.4-0.4,0.7c-0.1,0.3-0.2,0.5-0.2,0.8v5.6h-2.2v-9.4h2.1v1.4h0c0.3-0.5,0.6-0.9,1-1.1
		c0.4-0.3,1-0.4,1.6-0.4c0.2,0,0.5,0,0.7,0.1c0.2,0,0.4,0.1,0.6,0.1L136.4,13.4z"/>
</g>
</svg>
